<svg id="レイヤー_1" data-name="レイヤー 1" xmlns="http://www.w3.org/2000/svg" viewBox="0 0 21.58 23.3"><defs><style>.cls-1{fill:#fff;}</style></defs><title>icon_user-wh</title><path id="user001_-_E024" data-name="user001 - E024" class="cls-1" d="M13.6,12.88A6.75,6.75,0,0,0,10.79,0h0A6.75,6.75,0,0,0,4.05,6.75h0A6.76,6.76,0,0,0,8,12.88,10.79,10.79,0,0,0,0,23.3H1a9.78,9.78,0,0,1,9.76-9.8h0a9.77,9.77,0,0,1,9.8,9.75v.05h1A10.79,10.79,0,0,0,13.6,12.88ZM5,6.75A5.76,5.76,0,0,1,10.76,1h0a5.74,5.74,0,0,1,5.76,5.72v0A5.76,5.76,0,0,1,5,6.75Z" transform="translate(0)"/></svg>