<svg id="レイヤー_1" data-name="レイヤー 1" xmlns="http://www.w3.org/2000/svg" viewBox="0 0 23.79 23.79"><title>ico_clock</title><path id="clock001_-_E008" data-name="clock001 - E008" d="M11.89,23.79a11.94,11.94,0,0,1-11-7.26A12.09,12.09,0,0,1,0,11.89,11.88,11.88,0,0,1,20.29,3.48a12.07,12.07,0,0,1,2.57,3.78,12.26,12.26,0,0,1,.93,4.63,12.09,12.09,0,0,1-.93,4.64,12.18,12.18,0,0,1-2.57,3.78,11.82,11.82,0,0,1-8.4,3.48Zm0-22.8A10.9,10.9,0,0,0,1,11.89a10.73,10.73,0,0,0,.85,4.26,11.22,11.22,0,0,0,2.35,3.46,10.6,10.6,0,0,0,3.47,2.33,10.9,10.9,0,0,0,15.14-10A11,11,0,0,0,22,7.66a11.28,11.28,0,0,0-2.34-3.48,11.4,11.4,0,0,0-3.48-2.34A10.64,10.64,0,0,0,11.89,1Zm.88,12.92H6.12v-1h5.66V3.76h1Z" transform="translate(0)"/></svg>