<svg xmlns="http://www.w3.org/2000/svg" width="26.6" height="26.6" viewBox="0 0 26.6 26.6">
  <path id="settings001_-_E063" data-name="settings001 - E063" d="M13.3-15.58v-6.84H10.317a13.836,13.836,0,0,0-.589-1.463l2.09-2.09L6.973-30.818,4.94-28.785a10.649,10.649,0,0,0-1.52-.627V-32.3H-3.42v2.888a10.881,10.881,0,0,0-1.539.627l-2.033-2.033-4.845,4.845,2.09,2.09a13.836,13.836,0,0,0-.589,1.463H-13.3v6.84h3.059a12.221,12.221,0,0,0,.608,1.349l-2.2,2.2,4.845,4.845L-4.75-9.443a11.538,11.538,0,0,0,1.33.551V-5.7H3.42V-8.911a9.955,9.955,0,0,0,1.311-.532L6.973-7.182l4.845-4.845-2.2-2.2a12.221,12.221,0,0,0,.608-1.349Zm-1.9-1.9H8.759A9.161,9.161,0,0,1,7.22-13.927l1.9,1.9L6.973-9.88,5.035-11.8A9.15,9.15,0,0,1,1.52-10.374V-7.6H-1.52v-2.774A8.946,8.946,0,0,1-5.054-11.8L-6.992-9.88l-2.147-2.147,1.9-1.9A9.161,9.161,0,0,1-8.778-17.48H-11.4v-3.04h2.565a9.554,9.554,0,0,1,1.444-3.7l-1.748-1.748,2.147-2.147,1.729,1.729A9.345,9.345,0,0,1-1.52-27.949V-30.4H1.52v2.451a9.539,9.539,0,0,1,3.724,1.558L6.973-28.12,9.12-25.973,7.372-24.225a9.554,9.554,0,0,1,1.444,3.7H11.4ZM0-14.592A4.411,4.411,0,0,0,4.408-19,4.411,4.411,0,0,0,0-23.408,4.387,4.387,0,0,0-4.408-19,4.387,4.387,0,0,0,0-14.592Zm0-1.9A2.482,2.482,0,0,1-2.508-19,2.482,2.482,0,0,1,0-21.508,2.506,2.506,0,0,1,2.508-19,2.506,2.506,0,0,1,0-16.492Z" transform="translate(13.3 32.3)"/>
</svg>
