<svg id="レイヤー_1" data-name="レイヤー 1" xmlns="http://www.w3.org/2000/svg" viewBox="0 0 159.18 42.22"><defs><style>.cls-1{fill:#efb817;}.cls-2{isolation:isolate;}</style></defs><title>ico_sitelogo</title><g id="レイヤー_2" data-name="レイヤー 2"><g id="レイヤー_1-2" data-name="レイヤー 1"><g id="レイヤー_1-2-2" data-name="レイヤー 1-2"><path id="パス_799" data-name="パス 799" class="cls-1" d="M4.79,14a2.15,2.15,0,0,0,1.88-2.35A2.15,2.15,0,0,0,4.79,9.3a2.13,2.13,0,0,0-1.86,2.34A2.14,2.14,0,0,0,4.79,14Z" transform="translate(0.03 -7.71)"/><path id="パス_800" data-name="パス 800" class="cls-1" d="M10.85,10.06A2.16,2.16,0,0,0,9,7.71a2.16,2.16,0,0,0-1.88,2.35A2.15,2.15,0,0,0,9,12.41,2.13,2.13,0,0,0,10.85,10.06Z" transform="translate(0.03 -7.71)"/><path id="パス_801" data-name="パス 801" class="cls-1" d="M15,10.24a2.16,2.16,0,0,0-1.65-2.53,2.16,2.16,0,0,0-2.1,2.17,2.17,2.17,0,0,0,1.66,2.53A2.15,2.15,0,0,0,15,10.24Z" transform="translate(0.03 -7.71)"/><path id="パス_802" data-name="パス 802" class="cls-1" d="M18.83,9.29a2.45,2.45,0,0,0-3.1,1.36A2.4,2.4,0,0,0,16.4,14a2.43,2.43,0,0,0,3.1-1.38A2.39,2.39,0,0,0,18.83,9.29Z" transform="translate(0.03 -7.71)"/><path id="パス_803" data-name="パス 803" class="cls-1" d="M24.33,11.33c-1.57-.81-3.66.12-4.7,2.09s-.59,4.22,1,5,3.67-.13,4.7-2.09S25.9,12.14,24.33,11.33Z" transform="translate(0.03 -7.71)"/><path id="パス_804" data-name="パス 804" class="cls-1" d="M.13,32.3C.72,39.16,3,44.94,5.88,47.5c2,2.07,4.49,3,6.49,2.1A4.92,4.92,0,0,0,15,46a12.17,12.17,0,0,1-3.46-8.66c0-5.29,3.1-9.7,7.33-11.07a7.71,7.71,0,0,0,1.57-4.62c0-4.7-4.32-8.46-9.64-8.46a10.5,10.5,0,0,0-5.59,1.57,5.65,5.65,0,0,0-2.06,1.76A8,8,0,0,0,1.39,20,30.5,30.5,0,0,0,.13,32.3Z" transform="translate(0.03 -7.71)"/><path id="パス_805" data-name="パス 805" class="cls-1" d="M42.11,25.92a1.57,1.57,0,0,0,.14,2.15c.6.39,1.5,0,2-.78a1.58,1.58,0,0,0-.14-2.16C43.53,24.74,42.64,25.11,42.11,25.92Z" transform="translate(0.03 -7.71)"/><path id="パス_806" data-name="パス 806" class="cls-1" d="M42.37,22.63a1.58,1.58,0,0,0-2,.78,1.58,1.58,0,0,0,.14,2.16,1.55,1.55,0,0,0,2-.78A1.57,1.57,0,0,0,42.37,22.63Z" transform="translate(0.03 -7.71)"/><path id="パス_807" data-name="パス 807" class="cls-1" d="M39.84,21a1.6,1.6,0,0,0-2,1,1.52,1.52,0,0,0,.34,2.11,1.59,1.59,0,0,0,2-1A1.54,1.54,0,0,0,39.84,21Z" transform="translate(0.03 -7.71)"/><path id="パス_808" data-name="パス 808" class="cls-1" d="M37.32,22c.14-1.05-.41-1.94-1.22-2a1.91,1.91,0,0,0-1.7,1.84c-.13,1,.42,1.94,1.22,2A1.89,1.89,0,0,0,37.32,22Z" transform="translate(0.03 -7.71)"/><path id="パス_809" data-name="パス 809" class="cls-1" d="M34,22.29c.2-1.59-.62-2.94-1.84-3S29.8,20.45,29.57,22s.62,2.94,1.85,3S33.79,23.89,34,22.29Z" transform="translate(0.03 -7.71)"/><path id="パス_810" data-name="パス 810" class="cls-1" d="M23.69,44.24a3.62,3.62,0,0,0,.07,3.24c.8,1.28,2.57,1.62,4.54,1.06,2.66-.55,6.28-3.3,9.34-7.36A24.69,24.69,0,0,0,41.84,33a6.19,6.19,0,0,0,.36-2.83,3.91,3.91,0,0,0-.52-1.85,6.63,6.63,0,0,0-2.54-3,6.38,6.38,0,0,0-8.87,1.76h0a6.05,6.05,0,0,0-.91,3.44c1.87,2.4,1.88,6.29-.21,9.57a9.44,9.44,0,0,1-5.45,4.14Z" transform="translate(0.03 -7.71)"/></g><g id="STEP" class="cls-2"><g class="cls-2"><path d="M71.44,21.68a19.56,19.56,0,0,0-8.79-2,6,6,0,0,0-3.85,1.07,3.52,3.52,0,0,0-1.34,2.88q0,3.21,4.62,4.48,6.28,1.76,8.87,4.29a8.7,8.7,0,0,1,2.6,6.52A8.55,8.55,0,0,1,70.49,46c-2,1.64-5,2.46-8.85,2.46a19.77,19.77,0,0,1-10.59-2.9l1.58-5a15.94,15.94,0,0,0,9.14,2.94,6.12,6.12,0,0,0,4-1.16A4.06,4.06,0,0,0,67.17,39a4.16,4.16,0,0,0-1.09-3.05,9.4,9.4,0,0,0-4-2q-5.76-1.66-8.37-4.19a8.26,8.26,0,0,1-2.62-6.18,7.9,7.9,0,0,1,3-6.48q3-2.44,8.4-2.44A24.33,24.33,0,0,1,72.71,16.8Z" transform="translate(0.03 -7.71)"/><path d="M102.73,15.13v5.23H93.32V48H86.91V20.36H77.5V15.13Z" transform="translate(0.03 -7.71)"/><path d="M115,20.23v8h13.22V33.1H115v9.8h14.15V48H108.7V15.13h20.44v5.1Z" transform="translate(0.03 -7.71)"/><path d="M135.77,15.39a74.6,74.6,0,0,1,9.89-.7q6.76,0,10.13,2.68t3.36,7.78q0,5.63-3.25,8.5t-9.67,2.88a41,41,0,0,1-4.26-.18V48h-6.2ZM142,31.48a24.45,24.45,0,0,0,3.69.26,8.55,8.55,0,0,0,5.56-1.58,5.59,5.59,0,0,0,1.91-4.57q0-6-7.47-6a23.15,23.15,0,0,0-3.69.27Z" transform="translate(0.03 -7.71)"/></g></g></g><g id="レイヤー_1-2-2-2" data-name="レイヤー 1-2-2"><g id="レイヤー_1-2-3" data-name="レイヤー 1-2-3"><path id="パス_799-2" data-name="パス 799-2" class="cls-1" d="M4.79,14a2.15,2.15,0,0,0,1.88-2.35A2.15,2.15,0,0,0,4.79,9.3a2.13,2.13,0,0,0-1.86,2.34A2.14,2.14,0,0,0,4.79,14Z" transform="translate(0.03 -7.71)"/><path id="パス_800-2" data-name="パス 800-2" class="cls-1" d="M10.85,10.06A2.16,2.16,0,0,0,9,7.71a2.16,2.16,0,0,0-1.88,2.35A2.15,2.15,0,0,0,9,12.41,2.13,2.13,0,0,0,10.85,10.06Z" transform="translate(0.03 -7.71)"/><path id="パス_801-2" data-name="パス 801-2" class="cls-1" d="M15,10.24a2.16,2.16,0,0,0-1.65-2.53,2.16,2.16,0,0,0-2.1,2.17,2.17,2.17,0,0,0,1.66,2.53A2.15,2.15,0,0,0,15,10.24Z" transform="translate(0.03 -7.71)"/><path id="パス_802-2" data-name="パス 802-2" class="cls-1" d="M18.83,9.29a2.45,2.45,0,0,0-3.1,1.36A2.4,2.4,0,0,0,16.4,14a2.43,2.43,0,0,0,3.1-1.38A2.39,2.39,0,0,0,18.83,9.29Z" transform="translate(0.03 -7.71)"/><path id="パス_803-2" data-name="パス 803-2" class="cls-1" d="M24.33,11.33c-1.57-.81-3.66.12-4.7,2.09s-.59,4.22,1,5,3.67-.13,4.7-2.09S25.9,12.14,24.33,11.33Z" transform="translate(0.03 -7.71)"/><path id="パス_804-2" data-name="パス 804-2" class="cls-1" d="M.13,32.3C.72,39.16,3,44.94,5.88,47.5c2,2.07,4.49,3,6.49,2.1A4.92,4.92,0,0,0,15,46a12.17,12.17,0,0,1-3.46-8.66c0-5.29,3.1-9.7,7.33-11.07a7.71,7.71,0,0,0,1.57-4.62c0-4.7-4.32-8.46-9.64-8.46a10.5,10.5,0,0,0-5.59,1.57,5.65,5.65,0,0,0-2.06,1.76A8,8,0,0,0,1.39,20,30.5,30.5,0,0,0,.13,32.3Z" transform="translate(0.03 -7.71)"/><path id="パス_805-2" data-name="パス 805-2" class="cls-1" d="M42.11,25.92a1.57,1.57,0,0,0,.14,2.15c.6.39,1.5,0,2-.78a1.58,1.58,0,0,0-.14-2.16C43.53,24.74,42.64,25.11,42.11,25.92Z" transform="translate(0.03 -7.71)"/><path id="パス_806-2" data-name="パス 806-2" class="cls-1" d="M42.37,22.63a1.58,1.58,0,0,0-2,.78,1.58,1.58,0,0,0,.14,2.16,1.55,1.55,0,0,0,2-.78A1.57,1.57,0,0,0,42.37,22.63Z" transform="translate(0.03 -7.71)"/><path id="パス_807-2" data-name="パス 807-2" class="cls-1" d="M39.84,21a1.6,1.6,0,0,0-2,1,1.52,1.52,0,0,0,.34,2.11,1.59,1.59,0,0,0,2-1A1.54,1.54,0,0,0,39.84,21Z" transform="translate(0.03 -7.71)"/><path id="パス_808-2" data-name="パス 808-2" class="cls-1" d="M37.32,22c.14-1.05-.41-1.94-1.22-2a1.91,1.91,0,0,0-1.7,1.84c-.13,1,.42,1.94,1.22,2A1.89,1.89,0,0,0,37.32,22Z" transform="translate(0.03 -7.71)"/><path id="パス_809-2" data-name="パス 809-2" class="cls-1" d="M34,22.29c.2-1.59-.62-2.94-1.84-3S29.8,20.45,29.57,22s.62,2.94,1.85,3S33.79,23.89,34,22.29Z" transform="translate(0.03 -7.71)"/><path id="パス_810-2" data-name="パス 810-2" class="cls-1" d="M23.69,44.24a3.62,3.62,0,0,0,.07,3.24c.8,1.28,2.57,1.62,4.54,1.06,2.66-.55,6.28-3.3,9.34-7.36A24.69,24.69,0,0,0,41.84,33a6.19,6.19,0,0,0,.36-2.83,3.91,3.91,0,0,0-.52-1.85,6.63,6.63,0,0,0-2.54-3,6.38,6.38,0,0,0-8.87,1.76h0a6.05,6.05,0,0,0-.91,3.44c1.87,2.4,1.88,6.29-.21,9.57a9.44,9.44,0,0,1-5.45,4.14Z" transform="translate(0.03 -7.71)"/></g><g id="STEP-2" class="cls-2"><g class="cls-2"><path d="M71.44,21.68a19.56,19.56,0,0,0-8.79-2,6,6,0,0,0-3.85,1.07,3.52,3.52,0,0,0-1.34,2.88q0,3.21,4.62,4.48,6.28,1.76,8.87,4.29a8.7,8.7,0,0,1,2.6,6.52A8.55,8.55,0,0,1,70.49,46c-2,1.64-5,2.46-8.85,2.46a19.77,19.77,0,0,1-10.59-2.9l1.58-5a15.94,15.94,0,0,0,9.14,2.94,6.12,6.12,0,0,0,4-1.16A4.06,4.06,0,0,0,67.17,39a4.16,4.16,0,0,0-1.09-3.05,9.4,9.4,0,0,0-4-2q-5.76-1.66-8.37-4.19a8.26,8.26,0,0,1-2.62-6.18,7.9,7.9,0,0,1,3-6.48q3-2.44,8.4-2.44A24.33,24.33,0,0,1,72.71,16.8Z" transform="translate(0.03 -7.71)"/><path d="M102.73,15.13v5.23H93.32V48H86.91V20.36H77.5V15.13Z" transform="translate(0.03 -7.71)"/><path d="M115,20.23v8h13.22V33.1H115v9.8h14.15V48H108.7V15.13h20.44v5.1Z" transform="translate(0.03 -7.71)"/><path d="M135.77,15.39a74.6,74.6,0,0,1,9.89-.7q6.76,0,10.13,2.68t3.36,7.78q0,5.63-3.25,8.5t-9.67,2.88a41,41,0,0,1-4.26-.18V48h-6.2ZM142,31.48a24.45,24.45,0,0,0,3.69.26,8.55,8.55,0,0,0,5.56-1.58,5.59,5.59,0,0,0,1.91-4.57q0-6-7.47-6a23.15,23.15,0,0,0-3.69.27Z" transform="translate(0.03 -7.71)"/></g></g></g></g></svg>