<svg xmlns="http://www.w3.org/2000/svg" width="20.9" height="3.8" viewBox="0 0 20.9 3.8">
  <path id="dots005_-_E301" data-name="dots005 - E301" d="M-6.65-19a1.906,1.906,0,0,1-1.9,1.9,1.906,1.906,0,0,1-1.9-1.9,1.906,1.906,0,0,1,1.9-1.9A1.906,1.906,0,0,1-6.65-19ZM1.9-19A1.906,1.906,0,0,1,0-17.1,1.906,1.906,0,0,1-1.9-19,1.906,1.906,0,0,1,0-20.9,1.906,1.906,0,0,1,1.9-19Zm8.55,0a1.906,1.906,0,0,1-1.9,1.9A1.906,1.906,0,0,1,6.65-19a1.906,1.906,0,0,1,1.9-1.9A1.906,1.906,0,0,1,10.45-19Z" transform="translate(10.45 20.9)"/>
</svg>
