<svg xmlns="http://www.w3.org/2000/svg" width="160.63" height="62" viewBox="0 0 160.63 62">
  <defs>
    <style>
      .cls-1 {
        fill: #efb817;
      }

      .cls-2 {
        font-size: 45px;
        font-family: mgenplus-1p-bold, "Mgen+ 1p";
        font-weight: 700;
      }
    </style>
  </defs>
  <g id="レイヤー_2" data-name="レイヤー 2" transform="translate(-0.001 13.14)">
    <g id="レイヤー_1" data-name="レイヤー 1" transform="translate(0.001 -13.14)">
      <g id="レイヤー_1-2" data-name="レイヤー 1-2" transform="translate(0 7.707)">
        <path id="パス_799" data-name="パス 799" class="cls-1" d="M6.855,7.4A2.156,2.156,0,0,0,8.74,5.048,2.156,2.156,0,0,0,6.855,2.7,2.126,2.126,0,0,0,5,5.043,2.134,2.134,0,0,0,6.855,7.4Z" transform="translate(-2.065 -1.107)"/>
        <path id="パス_800" data-name="パス 800" class="cls-1" d="M15.839,2.348A2.152,2.152,0,0,0,13.955,0,2.156,2.156,0,0,0,12.07,2.348,2.16,2.16,0,0,0,13.955,4.7,2.149,2.149,0,0,0,15.839,2.348Z" transform="translate(-4.984 0.008)"/>
        <path id="パス_801" data-name="パス 801" class="cls-1" d="M22.962,2.525a2.168,2.168,0,0,0-1.656-2.53,2.153,2.153,0,0,0-2.1,2.166,2.174,2.174,0,0,0,1.662,2.53A2.152,2.152,0,0,0,22.962,2.525Z" transform="translate(-7.927 0.013)"/>
        <path id="パス_802" data-name="パス 802" class="cls-1" d="M29.638,2.545a2.457,2.457,0,0,0-3.1,1.362,2.4,2.4,0,0,0,.669,3.323,2.434,2.434,0,0,0,3.1-1.386A2.394,2.394,0,0,0,29.638,2.545Z" transform="translate(-10.804 -0.964)"/>
        <path id="パス_803" data-name="パス 803" class="cls-1" d="M37.746,5.955c-1.568-.81-3.664.123-4.7,2.084s-.587,4.221,1.01,5.032,3.669-.129,4.7-2.09S39.319,6.765,37.746,5.955Z" transform="translate(-13.416 -2.33)"/>
        <path id="パス_804" data-name="パス 804" class="cls-1" d="M.135,28.4C.723,35.261,3.024,41.038,5.883,43.6c2.014,2.073,4.486,2.971,6.488,2.1a4.921,4.921,0,0,0,2.665-3.646,12.212,12.212,0,0,1-3.458-8.666c0-5.284,3.1-9.693,7.333-11.067A7.685,7.685,0,0,0,20.479,17.7c0-4.7-4.315-8.46-9.64-8.46a10.5,10.5,0,0,0-5.589,1.573,5.677,5.677,0,0,0-2.061,1.761,7.979,7.979,0,0,0-1.8,3.482A30.465,30.465,0,0,0,.135,28.4Z" transform="translate(-0.001 -3.807)"/>
        <path id="パス_805" data-name="パス 805" class="cls-1" d="M71.484,30.34a1.568,1.568,0,0,0,.141,2.155c.593.393,1.5,0,2.014-.781a1.567,1.567,0,0,0-.141-2.155C72.9,29.165,72.007,29.535,71.484,30.34Z" transform="translate(-29.371 -12.131)"/>
        <path id="パス_806" data-name="パス 806" class="cls-1" d="M70.5,25.3a1.565,1.565,0,0,0-2.014.781,1.569,1.569,0,0,0,.135,2.155,1.552,1.552,0,0,0,2.014-.781A1.567,1.567,0,0,0,70.5,25.3Z" transform="translate(-28.131 -10.375)"/>
        <path id="パス_807" data-name="パス 807" class="cls-1" d="M66.308,22.607a1.6,1.6,0,0,0-1.949.969,1.527,1.527,0,0,0,.335,2.114,1.591,1.591,0,0,0,1.949-.963A1.54,1.54,0,0,0,66.308,22.607Z" transform="translate(-26.467 -9.284)"/>
        <path id="パス_808" data-name="パス 808" class="cls-1" d="M61.5,22.939c.135-1.051-.417-1.943-1.221-1.99s-1.573.775-1.7,1.832.417,1.943,1.221,1.99S61.365,24,61.5,22.939Z" transform="translate(-24.178 -8.641)"/>
        <path id="パス_809" data-name="パス 809" class="cls-1" d="M54.765,22.7c.2-1.591-.622-2.936-1.844-3.012s-2.348,1.174-2.577,2.765.622,2.936,1.844,3.012S54.559,24.3,54.765,22.7Z" transform="translate(-20.771 -8.12)"/>
        <path id="パス_810" data-name="パス 810" class="cls-1" d="M40.106,48.151a3.64,3.64,0,0,0,.07,3.241c.8,1.28,2.572,1.62,4.544,1.063,2.654-.552,6.276-3.305,9.335-7.362a24.571,24.571,0,0,0,4.2-8.155,6.088,6.088,0,0,0,.358-2.824,3.91,3.91,0,0,0-.511-1.849,6.634,6.634,0,0,0-2.548-3.024A6.394,6.394,0,0,0,46.682,31a5.977,5.977,0,0,0-.91,3.446c1.867,2.4,1.879,6.288-.211,9.564a9.464,9.464,0,0,1-5.454,4.139Z" transform="translate(-16.417 -11.619)"/>
      </g>
      <text id="STEP" class="cls-2" transform="translate(48.63 48)"><tspan x="0" y="0">STEP</tspan></text>
    </g>
    <g id="レイヤー_1-2-2" data-name="レイヤー 1" transform="translate(0.001 -13.14)">
      <g id="レイヤー_1-2-3" data-name="レイヤー 1-2" transform="translate(0 7.707)">
        <path id="パス_799-2" data-name="パス 799" class="cls-1" d="M6.855,7.4A2.156,2.156,0,0,0,8.74,5.048,2.156,2.156,0,0,0,6.855,2.7,2.126,2.126,0,0,0,5,5.043,2.134,2.134,0,0,0,6.855,7.4Z" transform="translate(-2.065 -1.107)"/>
        <path id="パス_800-2" data-name="パス 800" class="cls-1" d="M15.839,2.348A2.152,2.152,0,0,0,13.955,0,2.156,2.156,0,0,0,12.07,2.348,2.16,2.16,0,0,0,13.955,4.7,2.149,2.149,0,0,0,15.839,2.348Z" transform="translate(-4.984 0.008)"/>
        <path id="パス_801-2" data-name="パス 801" class="cls-1" d="M22.962,2.525a2.168,2.168,0,0,0-1.656-2.53,2.153,2.153,0,0,0-2.1,2.166,2.174,2.174,0,0,0,1.662,2.53A2.152,2.152,0,0,0,22.962,2.525Z" transform="translate(-7.927 0.013)"/>
        <path id="パス_802-2" data-name="パス 802" class="cls-1" d="M29.638,2.545a2.457,2.457,0,0,0-3.1,1.362,2.4,2.4,0,0,0,.669,3.323,2.434,2.434,0,0,0,3.1-1.386A2.394,2.394,0,0,0,29.638,2.545Z" transform="translate(-10.804 -0.964)"/>
        <path id="パス_803-2" data-name="パス 803" class="cls-1" d="M37.746,5.955c-1.568-.81-3.664.123-4.7,2.084s-.587,4.221,1.01,5.032,3.669-.129,4.7-2.09S39.319,6.765,37.746,5.955Z" transform="translate(-13.416 -2.33)"/>
        <path id="パス_804-2" data-name="パス 804" class="cls-1" d="M.135,28.4C.723,35.261,3.024,41.038,5.883,43.6c2.014,2.073,4.486,2.971,6.488,2.1a4.921,4.921,0,0,0,2.665-3.646,12.212,12.212,0,0,1-3.458-8.666c0-5.284,3.1-9.693,7.333-11.067A7.685,7.685,0,0,0,20.479,17.7c0-4.7-4.315-8.46-9.64-8.46a10.5,10.5,0,0,0-5.589,1.573,5.677,5.677,0,0,0-2.061,1.761,7.979,7.979,0,0,0-1.8,3.482A30.465,30.465,0,0,0,.135,28.4Z" transform="translate(-0.001 -3.807)"/>
        <path id="パス_805-2" data-name="パス 805" class="cls-1" d="M71.484,30.34a1.568,1.568,0,0,0,.141,2.155c.593.393,1.5,0,2.014-.781a1.567,1.567,0,0,0-.141-2.155C72.9,29.165,72.007,29.535,71.484,30.34Z" transform="translate(-29.371 -12.131)"/>
        <path id="パス_806-2" data-name="パス 806" class="cls-1" d="M70.5,25.3a1.565,1.565,0,0,0-2.014.781,1.569,1.569,0,0,0,.135,2.155,1.552,1.552,0,0,0,2.014-.781A1.567,1.567,0,0,0,70.5,25.3Z" transform="translate(-28.131 -10.375)"/>
        <path id="パス_807-2" data-name="パス 807" class="cls-1" d="M66.308,22.607a1.6,1.6,0,0,0-1.949.969,1.527,1.527,0,0,0,.335,2.114,1.591,1.591,0,0,0,1.949-.963A1.54,1.54,0,0,0,66.308,22.607Z" transform="translate(-26.467 -9.284)"/>
        <path id="パス_808-2" data-name="パス 808" class="cls-1" d="M61.5,22.939c.135-1.051-.417-1.943-1.221-1.99s-1.573.775-1.7,1.832.417,1.943,1.221,1.99S61.365,24,61.5,22.939Z" transform="translate(-24.178 -8.641)"/>
        <path id="パス_809-2" data-name="パス 809" class="cls-1" d="M54.765,22.7c.2-1.591-.622-2.936-1.844-3.012s-2.348,1.174-2.577,2.765.622,2.936,1.844,3.012S54.559,24.3,54.765,22.7Z" transform="translate(-20.771 -8.12)"/>
        <path id="パス_810-2" data-name="パス 810" class="cls-1" d="M40.106,48.151a3.64,3.64,0,0,0,.07,3.241c.8,1.28,2.572,1.62,4.544,1.063,2.654-.552,6.276-3.305,9.335-7.362a24.571,24.571,0,0,0,4.2-8.155,6.088,6.088,0,0,0,.358-2.824,3.91,3.91,0,0,0-.511-1.849,6.634,6.634,0,0,0-2.548-3.024A6.394,6.394,0,0,0,46.682,31a5.977,5.977,0,0,0-.91,3.446c1.867,2.4,1.879,6.288-.211,9.564a9.464,9.464,0,0,1-5.454,4.139Z" transform="translate(-16.417 -11.619)"/>
      </g>
      <text id="STEP-2" data-name="STEP" class="cls-2" transform="translate(48.63 48)"><tspan x="0" y="0">STEP</tspan></text>
    </g>
  </g>
</svg>
